<svg xmlns="http://www.w3.org/2000/svg" viewBox="0 0 1920 1080" role="img" aria-label="Abstract PayCMD stablecoin payment rails">
  <defs>
    <radialGradient id="mint" cx="74%" cy="22%" r="62%">
      <stop offset="0" stop-color="#63f4c8" stop-opacity=".34"/>
      <stop offset=".42" stop-color="#10221e" stop-opacity=".42"/>
      <stop offset="1" stop-color="#07090d" stop-opacity="0"/>
    </radialGradient>
    <radialGradient id="cyan" cx="22%" cy="75%" r="55%">
      <stop offset="0" stop-color="#5debff" stop-opacity=".22"/>
      <stop offset=".5" stop-color="#0d1a22" stop-opacity=".28"/>
      <stop offset="1" stop-color="#07090d" stop-opacity="0"/>
    </radialGradient>
    <linearGradient id="panel" x1="0" x2="1" y1="0" y2="1">
      <stop offset="0" stop-color="#20252b" stop-opacity=".92"/>
      <stop offset="1" stop-color="#0b0d10" stop-opacity=".96"/>
    </linearGradient>
    <pattern id="grid" width="118" height="118" patternUnits="userSpaceOnUse">
      <path d="M118 0H0v118" fill="none" stroke="#ffffff" stroke-opacity=".055" stroke-width="1"/>
    </pattern>
    <filter id="soft" x="-40%" y="-40%" width="180%" height="180%">
      <feGaussianBlur stdDeviation="12"/>
    </filter>
  </defs>
  <rect width="1920" height="1080" fill="#07090d"/>
  <rect width="1920" height="1080" fill="url(#grid)"/>
  <rect width="1920" height="1080" fill="url(#mint)"/>
  <rect width="1920" height="1080" fill="url(#cyan)"/>

  <g opacity=".44" fill="none" stroke="#f4f7f8" stroke-width="2">
    <path d="M-120 706C212 554 444 596 664 716s430 138 706-82 532-222 720-98"/>
    <path opacity=".44" d="M-80 826c320-118 532-72 742 58s420 142 694-64 526-216 724-112"/>
    <path opacity=".28" d="M-72 426c286-150 546-152 778-12s444 140 650-24 442-216 654-120"/>
  </g>

  <g opacity=".9">
    <circle cx="1260" cy="292" r="4" fill="#ff4d5e"/>
    <path d="M1260 264v56M1232 292h56" stroke="#ff4d5e" stroke-width="3"/>
    <circle cx="1564" cy="660" r="3" fill="#ff4d5e"/>
    <path d="M1564 634v52M1538 660h52" stroke="#ff4d5e" stroke-width="2"/>
    <circle cx="390" cy="708" r="3" fill="#ff4d5e"/>
    <path d="M390 684v48M366 708h48" stroke="#ff4d5e" stroke-width="2"/>
  </g>

  <g transform="translate(1130 210)">
    <rect width="520" height="690" rx="42" fill="#050608" stroke="#ffffff" stroke-opacity=".12"/>
    <rect x="38" y="52" width="444" height="586" rx="28" fill="url(#panel)" stroke="#ffffff" stroke-opacity=".14"/>
    <g opacity=".96">
      <circle cx="96" cy="126" r="24" fill="#161b20" stroke="#63f4c8" stroke-opacity=".32"/>
      <path d="M132 104h220" stroke="#f4f7f8" stroke-opacity=".6" stroke-width="10" stroke-linecap="round"/>
      <path d="M132 134h170" stroke="#8b939c" stroke-opacity=".7" stroke-width="8" stroke-linecap="round"/>
      <rect x="276" y="170" width="132" height="48" rx="19" fill="#20252b" stroke="#ffffff" stroke-opacity=".12"/>
      <rect x="368" y="238" width="74" height="44" rx="18" fill="#63f4c8" fill-opacity=".88"/>
      <path d="M86 318h160" stroke="#f4f7f8" stroke-opacity=".64" stroke-width="9" stroke-linecap="round"/>
      <path d="M86 348h230" stroke="#8b939c" stroke-opacity=".58" stroke-width="8" stroke-linecap="round"/>
    </g>
    <g transform="translate(58 402)">
      <rect width="120" height="162" rx="18" fill="#14181d" stroke="#ffffff" stroke-opacity=".13"/>
      <rect x="156" width="120" height="162" rx="18" fill="#14181d" stroke="#ffffff" stroke-opacity=".13"/>
      <rect x="312" width="120" height="162" rx="18" fill="#101317" stroke="#ffffff" stroke-opacity=".1"/>
      <path d="M24 104c22 10 38-8 58 0s36-10 58 0" stroke="#63f4c8" stroke-width="3" fill="none"/>
      <path d="M180 106c22 6 38-12 58-2s34-10 54-2" stroke="#5debff" stroke-opacity=".72" stroke-width="3" fill="none"/>
      <circle cx="60" cy="44" r="24" fill="#f4f7f8"/>
      <circle cx="216" cy="44" r="24" fill="#63f4c8" fill-opacity=".5"/>
      <circle cx="372" cy="58" r="26" fill="#ff4d5e" fill-opacity=".16" stroke="#ff4d5e" stroke-opacity=".32"/>
    </g>
    <rect x="58" y="592" width="404" height="38" rx="19" fill="#63f4c8" fill-opacity=".92" filter="url(#soft)"/>
    <rect x="72" y="582" width="376" height="54" rx="22" fill="#101317" stroke="#63f4c8" stroke-opacity=".3"/>
    <circle cx="260" cy="609" r="20" fill="#63f4c8"/>
    <path d="m251 609 7 7 14-16" fill="none" stroke="#06100d" stroke-width="4" stroke-linecap="round" stroke-linejoin="round"/>
  </g>
</svg>
